PathFileType	4	(X/Y/Z)	/Users/itak/Documents/Research/Walk-IL/dataset/trc/00431_00167.trc
DataRate	CameraRate	NumFrames	NumMarkers	Units	OrigDataRate	OrigDataStartFrame	OrigNumFrames
100.000000	100.000000	4	54	mm	100.000000	168	673
Frame#	Time	RPSI			LPSI			L3			STRN			T10			C7			CLAV			RBAK			LBAK			LSHO			LUPA			LAEL			LAOL			LWTS			LWPS			LFRA			LIFD			LHPS			LHTS			RSHO			RUPA			RAEL			RAOL			RWTS			RWPS			RFRA			RIFD			RHTS			RHPS			RBHD			LFHD			RFHD			LBHD			LHIP			RHIP			RASI			LASI			LKNE			LTHI			LANK			LTIP			LTOE			LMT1			LMT5			LHEE			RKNE			RTHI			RANK			RTIP			RTOE			RMT1			RMT5			RHEE			*53			
		X1	Y1	Z1	X2	Y2	Z2	X3	Y3	Z3	X4	Y4	Z4	X5	Y5	Z5	X6	Y6	Z6	X7	Y7	Z7	X8	Y8	Z8	X9	Y9	Z9	X10	Y10	Z10	X11	Y11	Z11	X12	Y12	Z12	X13	Y13	Z13	X14	Y14	Z14	X15	Y15	Z15	X16	Y16	Z16	X17	Y17	Z17	X18	Y18	Z18	X19	Y19	Z19	X20	Y20	Z20	X21	Y21	Z21	X22	Y22	Z22	X23	Y23	Z23	X24	Y24	Z24	X25	Y25	Z25	X26	Y26	Z26	X27	Y27	Z27	X28	Y28	Z28	X29	Y29	Z29	X30	Y30	Z30	X31	Y31	Z31	X32	Y32	Z32	X33	Y33	Z33	X34	Y34	Z34	X35	Y35	Z35	X36	Y36	Z36	X37	Y37	Z37	X38	Y38	Z38	X39	Y39	Z39	X40	Y40	Z40	X41	Y41	Z41	X42	Y42	Z42	X43	Y43	Z43	X44	Y44	Z44	X45	Y45	Z45	X46	Y46	Z46	X47	Y47	Z47	X48	Y48	Z48	X49	Y49	Z49	X50	Y50	Z50	X51	Y51	Z51	X52	Y52	Z52	X53	Y53	Z53	X54	Y54	Z54	

169	1.68	-1084.769165039062	947.1085815429688	-433.0962524414062	-1012.738098144531	949.3771362304688	-556.7893676757812	-1040.588256835938	1054.881958007812	-482.9672546386719	-787.7534790039062	1240.39599609375	-363.2685241699219	-1046.818237304688	1178.379760742188	-495.8218078613281	-985.3935546875	1444.02392578125	-453.6342163085938	-815.2506713867188	1355.834838867188	-382.8681335449219	-1088.118408203125	1326.654418945312	-399.9072570800781	-969.2374267578125	1398.777221679688	-556.3648681640625	-840.0030517578125	1414.832763671875	-579.7159423828125	-808.2243041992188	1297.590942382812	-675.8592529296875	-778.7726440429688	1083.30078125	-704.7755126953125	-878.4517822265625	1067.464233398438	-678.1868896484375	-723.4382934570312	878.033447265625	-643.3617553710938	-744.5238647460938	865.566162109375	-713.7022094726562	-757.0673217773438	995.8682250976562	-710.2092895507812	-723.6380004882812	709.1227416992188	-651.8888549804688	-739.7421875	784.5681762695312	-713.003173828125	-707.3886108398438	787.92919921875	-649.6209106445312	-997.29736328125	1412.869018554688	-279.3305969238281	-1051.415283203125	1354.6328125	-220.5242309570312	-1099.3544921875	1072.224731445312	-168.3823394775391	-1126.471801757812	1056.136596679688	-228.8763580322266	-1000.00830078125	866.6619262695312	-149.5566711425781	-1086.578125	856.7443237304688	-135.6406402587891	-1103.956176757812	1014.040710449219	-157.3371887207031	-1013.387939453125	708.1673583984375	-133.5857849121094	-997.4427490234375	767.3781127929688	-124.3928909301758	-1076.057739257812	771.2296142578125	-122.3849563598633	-946.2449340820312	1637.306762695312	-340.3879699707031	-752.949951171875	1649.067016601562	-414.3797302246094	-814.493408203125	1650.286743164062	-298.8851013183594	-876.0369262695312	1641.208129882812	-504.2115783691406	-843.8842163085938	841.8905029296875	-596.0988159179688	-1032.056762695312	865.295166015625	-239.3740692138672	-920.4772338867188	910.3170166015625	-268.0111694335938	-788.9482421875	881.4835815429688	-482.5615539550781	-910.9031372070312	421.6100463867188	-546.1029052734375	-859.3341064453125	571.585205078125	-557.5074462890625	-1045.54638671875	34.43892669677734	-580.6599731445312	-943.2555541992188	269.4212646484375	-555.9443359375	-903.7305908203125	42.88695907592773	-394.9238891601562	-978.5016479492188	47.67250442504883	-416.8135986328125	-913.9134521484375	47.2460823059082	-509.6988525390625	-1119.338745117188	39.02767944335938	-571.8493041992188	-849.0550537109375	521.5084228515625	-156.2770538330078	-949.6611328125	758.2763671875	-188.9838104248047	-953.6156616210938	104.3380508422852	-206.100830078125	-881.97265625	375.5066833496094	-152.6634521484375	-749.5970458984375	79.43062591552734	-141.7153167724609	-785.02734375	88.66913604736328	-204.1554870605469	-852.5540771484375	85.08666229248047	-122.5314331054688	-988.4839477539062	109.7204895019531	-279.7287292480469	nan	nan	nan	
170	1.69	-1081.592895507812	946.211669921875	-430.8331604003906	-1009.484375	948.0027465820312	-554.55029296875	-1037.587036132812	1054.164428710938	-480.886474609375	-784.6762084960938	1239.690673828125	-360.9425964355469	-1043.722900390625	1177.71484375	-493.7103881835938	-982.2969970703125	1443.2744140625	-451.2014770507812	-812.259033203125	1355.140625	-380.3603820800781	-1085.044189453125	1325.87939453125	-397.73779296875	-966.0091552734375	1398.187866210938	-553.9771118164062	-836.722900390625	1414.327270507812	-577.179443359375	-804.8013916015625	1297.227416992188	-673.4276123046875	-775.3365478515625	1082.894653320312	-702.416015625	-874.9680786132812	1066.989379882812	-675.9817504882812	-719.984375	877.70654296875	-640.7559814453125	-740.9139404296875	865.16552734375	-711.1394653320312	-753.5558471679688	995.4808959960938	-707.7639770507812	-720.0411987304688	708.8179931640625	-649.1271362304688	-736.2470703125	784.174072265625	-710.4652099609375	-703.8876953125	787.5819091796875	-646.9459838867188	-994.4034423828125	1411.936889648438	-276.9454345703125	-1048.59814453125	1353.67333984375	-218.3607940673828	-1097.1298828125	1071.229370117188	-166.8645782470703	-1124.13134765625	1055.405151367188	-227.4781951904297	-998.6009521484375	865.1997680664062	-148.3759307861328	-1085.228637695312	855.6021118164062	-134.6693878173828	-1101.946166992188	1013.03564453125	-156.0072479248047	-1012.638000488281	706.6995849609375	-133.043701171875	-996.0341186523438	766.017333984375	-123.4639739990234	-1075.079711914062	769.970703125	-121.7406539916992	-943.3765869140625	1636.3984375	-337.6854553222656	-750.0206298828125	1648.390502929688	-411.5222473144531	-811.7127075195312	1649.447021484375	-296.0681762695312	-873.0885009765625	1640.477172851562	-501.4710388183594	-840.8935546875	841.1824340820312	-594.2178344726562	-1028.154907226562	864.763916015625	-237.0284118652344	-916.8065795898438	910.0189208984375	-265.9331359863281	-785.7819213867188	880.8904418945312	-480.7566833496094	-908.2527465820312	420.8887023925781	-544.1365356445312	-856.5194702148438	570.9186401367188	-555.3443603515625	-1045.525634765625	34.57753372192383	-580.5692749023438	-941.7582397460938	268.7672424316406	-554.6174926757812	-903.7036743164062	42.77875137329102	-394.8637390136719	-978.4544067382812	47.61959075927734	-416.7685241699219	-913.8970336914062	47.22583389282227	-509.6624755859375	-1119.36474609375	39.21173477172852	-571.7349243164062	-844.3670043945312	520.8209228515625	-154.239501953125	-945.83740234375	757.8223876953125	-187.0432739257812	-938.4771118164062	99.61123657226562	-196.2496185302734	-873.7437744140625	374.0255126953125	-147.8872985839844	-733.0935668945312	81.11971282958984	-134.1544342041016	-769.5421752929688	88.65110778808594	-196.275146484375	-835.9627075195312	83.67176818847656	-113.8831253051758	-974.3103637695312	103.6141204833984	-269.5357971191406	nan	nan	nan	
171	1.7	-1078.313720703125	945.2666625976562	-428.4764099121094	-1006.167175292969	946.64892578125	-552.2017211914062	-1034.526977539062	1053.368896484375	-478.708251953125	-781.5283813476562	1238.89111328125	-358.5397033691406	-1040.580078125	1176.971923828125	-491.5128173828125	-979.1119995117188	1442.442016601562	-448.6813659667969	-809.1944580078125	1354.356689453125	-377.7686462402344	-1081.885498046875	1325.02734375	-395.4931945800781	-962.70263671875	1397.524291992188	-551.5006713867188	-833.3558959960938	1413.726928710938	-574.54736328125	-801.3126220703125	1296.7783203125	-670.9071655273438	-771.8317260742188	1082.397216796875	-699.9823608398438	-871.4583129882812	1066.445068359375	-673.728271484375	-716.4730834960938	877.29150390625	-638.0518798828125	-737.2205200195312	864.6787719726562	-708.4871826171875	-749.9772338867188	995.0173950195312	-705.230712890625	-716.3637084960938	708.4323120117188	-646.24462890625	-732.7118530273438	783.6812133789062	-707.8418579101562	-700.3312377929688	787.15771484375	-644.1668090820312	-991.4240112304688	1410.916259765625	-274.4627075195312	-1045.702514648438	1352.616821289062	-216.0989685058594	-1094.821411132812	1070.14794921875	-165.2547454833984	-1121.711059570312	1054.581909179688	-225.9901275634766	-997.091064453125	863.6670532226562	-147.1073913574219	-1083.775512695312	854.376953125	-133.6109313964844	-1099.855224609375	1011.946411132812	-154.5748596191406	-1011.774291992188	705.165771484375	-132.3959808349609	-994.8733520507812	764.5484619140625	-122.5459747314453	-1073.979858398438	768.6408081054688	-121.0045852661133	-940.4593505859375	1635.4033203125	-334.8933410644531	-747.0247192382812	1647.65478515625	-408.5709838867188	-808.8671264648438	1648.534057617188	-293.1624755859375	-870.0803833007812	1639.641479492188	-498.6492004394531	-837.8360595703125	840.42578125	-592.2648315429688	-1024.212890625	864.11865234375	-234.6266174316406	-913.0389404296875	909.6210327148438	-263.7637023925781	-782.5139770507812	880.2252807617188	-478.8931579589844	-905.5418090820312	420.1276550292969	-542.1500854492188	-853.638916015625	570.218017578125	-553.1407470703125	-1045.52197265625	34.71768188476562	-580.4873657226562	-940.2518310546875	268.0718078613281	-553.2813110351562	-903.6343994140625	42.68920135498047	-394.7919311523438	-978.4136962890625	47.56111526489258	-416.7256164550781	-913.878173828125	47.20766448974609	-509.6300659179688	-1119.393432617188	39.40749740600586	-571.6220092773438	-839.8983764648438	519.8475952148438	-152.2881164550781	-941.8080444335938	757.1922607421875	-184.9652099609375	-922.99609375	94.96204376220703	-186.1344451904297	-865.59033203125	372.4153442382812	-143.12060546875	-716.4503173828125	83.02490234375	-126.364631652832	-753.8523559570312	88.77091979980469	-188.1479034423828	-819.1361083984375	82.52516937255859	-104.9811630249023	-959.7341918945312	97.42756652832031	-259.0585021972656	nan	nan	nan	
172	1.71	-1074.919067382812	944.2661743164062	-426.0133056640625	-1002.798400878906	945.3379516601562	-549.7373657226562	-1031.408325195312	1052.493530273438	-476.4242858886719	-778.3148193359375	1237.990844726562	-356.0586853027344	-1037.387329101562	1176.14501953125	-489.2206420898438	-975.8379516601562	1441.523193359375	-446.0750427246094	-806.0545043945312	1353.477783203125	-375.0941467285156	-1078.644409179688	1324.092041015625	-393.1686401367188	-959.3187255859375	1396.780883789062	-548.9353637695312	-829.9070434570312	1413.029296875	-571.8226318359375	-797.7553100585938	1296.236572265625	-668.294677734375	-768.2532348632812	1081.805541992188	-697.470458984375	-867.9187622070312	1065.827270507812	-671.427001953125	-712.9063720703125	876.7796630859375	-635.253662109375	-733.4453125	864.1015014648438	-705.7508544921875	-746.321533203125	994.47216796875	-702.6061401367188	-712.612060546875	707.9613037109375	-643.2606811523438	-729.1149291992188	783.0814208984375	-705.12646484375	-696.718017578125	786.6551513671875	-641.2888793945312	-988.3576049804688	1409.802368164062	-271.8818969726562	-1042.734619140625	1351.459350585938	-213.7330017089844	-1092.427490234375	1068.976928710938	-163.5536499023438	-1119.206665039062	1053.660034179688	-224.4130096435547	-995.4719848632812	862.0634155273438	-145.7461547851562	-1082.214477539062	853.0652465820312	-132.46435546875	-1097.68212890625	1010.7685546875	-153.0371704101562	-1010.788146972656	703.56640625	-131.6270904541016	-993.9917602539062	762.9390869140625	-121.6392440795898	-1072.7529296875	767.2400512695312	-120.1649017333984	-937.4921264648438	1634.315673828125	-332.0154724121094	-743.9673461914062	1646.852905273438	-405.5285949707031	-805.9559936523438	1647.547119140625	-290.169677734375	-867.009033203125	1638.708618164062	-495.7390441894531	-834.7249755859375	839.6179809570312	-590.2421264648438	-1020.229125976562	863.3533325195312	-232.1605224609375	-909.1677856445312	909.1107788085938	-261.5025024414062	-779.1541137695312	879.4826049804688	-476.9732666015625	-902.7842407226562	419.3285827636719	-540.1548461914062	-850.6964111328125	569.483154296875	-550.91162109375	-1045.531616210938	34.85503005981445	-580.4161987304688	-938.73291015625	267.3406066894531	-551.9482421875	-903.5300903320312	42.61423873901367	-394.7103881835938	-978.3773803710938	47.50500869750977	-416.6846618652344	-913.8525390625	47.18570709228516	-509.6044921875	-1119.419311523438	39.61106109619141	-571.516357421875	-835.6430053710938	518.590087890625	-150.4131011962891	-937.5482177734375	756.3931274414062	-182.7322998046875	-907.2202758789062	90.48355865478516	-175.8157958984375	-857.5180053710938	370.6947326660156	-138.3777618408203	-699.7470703125	85.21515655517578	-118.3512496948242	-738.0128173828125	89.08716583251953	-179.7931365966797	-802.1585083007812	81.75040435791016	-95.85520172119141	-944.7850341796875	91.24407958984375	-248.3602447509766	nan	nan	nan	
